<?xml version="1.0" encoding="utf-8"?>
<!-- Generator: Adobe Illustrator 19.2.1, SVG Export Plug-In . SVG Version: 6.00 Build 0)  -->
<svg version="1.1" id="图层_1" xmlns="http://www.w3.org/2000/svg" xmlns:xlink="http://www.w3.org/1999/xlink" x="0px" y="0px"
	 viewBox="0 0 54 50" style="enable-background:new 0 0 54 50;" xml:space="preserve">
<style type="text/css">
	.st0{fill:#231815;}
</style>
<title>Artboard 1</title>
<desc>Created with Sketch.</desc>
<g>
	<g>
		<g>
			<g>
				<path class="st0" d="M51.5,2.5v45H6.3v-45H51.5z M54,0H3.8v50H54V0z M40.6,25.7l-1.2-0.5c-2.1-0.9-3-1.4-3-2.9
					c0-1.2,0.9-2.1,2.3-2.1c1.4,0,2.3,0.6,3.1,2.1l3.8-2.4c-1.6-2.8-3.8-3.8-6.8-3.8c-4.3,0-7,2.8-7,6.3c0,3.9,2.3,5.8,5.8,7.3
					l1.2,0.5c2.2,0.9,3.5,1.6,3.5,3.2c0,1.4-1.3,2.4-3.3,2.4c-2.4,0-3.7-1.3-4.8-2.9l-3.9,2.3c1.4,2.8,4.3,4.9,8.8,4.9
					c4.6,0,8-2.4,8-6.7C47,29.3,44.7,27.5,40.6,25.7L40.6,25.7z M27.6,32.7V16.4h-4.8v16.3c0,2.4-1,3-2.6,3c-1.6,0-2.3-1.1-3.1-2.4
					l-4,2.4c1.1,2.4,3.4,4.4,7.2,4.4C24.7,40,27.6,37.7,27.6,32.7z"/>
				<ellipse class="st0" cx="5" cy="35" rx="5" ry="5"/>
			</g>
		</g>
	</g>
</g>
</svg>
